<?xml version="1.0" standalone="no"?><!-- Generator: Gravit.io --><svg xmlns="http://www.w3.org/2000/svg" xmlns:xlink="http://www.w3.org/1999/xlink" style="isolation:isolate" viewBox="0 0 400 600" width="400" height="600"><defs><clipPath id="_clipPath_cjBPEZGkJo1ARkZGqK83EjOpTt3a09A2"><rect width="400" height="600"/></clipPath></defs><g clip-path="url(#_clipPath_cjBPEZGkJo1ARkZGqK83EjOpTt3a09A2)"><g style="isolation:isolate" id="Layer 0"><path d=" M 192.306 473.489 Q 197.025 472.31 202.531 468.377 C 208.036 464.444 220.621 456.579 236.351 438.882 C 252.082 421.185 271.352 361.409 272.925 344.892 Q 274.498 328.375 278.431 257.588 Q 287.869 236.351 288.262 226.913 C 288.655 217.475 287.082 196.239 281.183 195.452 Q 275.284 194.665 266.239 212.756 L 272.138 255.621 Q 266.633 332.308 265.453 340.566 C 264.273 348.825 243.43 387.758 240.284 390.117 C 237.138 392.477 232.025 377.926 225.733 372.814 Q 219.441 367.701 205.677 362.196 L 193.486 367.701 L 180.901 362.982 Q 162.025 369.668 154.946 376.746 Q 147.867 383.825 147.867 392.477 Q 130.17 368.488 126.631 360.623 Q 123.091 352.757 122.698 351.184 L 110.9 248.543 L 135.676 263.88 Q 117.979 245.396 124.665 226.52 Q 131.35 207.643 147.081 206.463 Q 176.182 206.07 192.699 208.43 C 209.216 210.789 217.868 211.183 224.553 209.609 C 231.239 208.036 238.318 200.958 245.79 200.564 Q 253.262 200.171 263.093 208.823 Q 273.318 191.913 274.105 184.834 C 274.891 177.755 274.891 168.71 269.386 161.631 C 263.88 154.553 243.037 136.856 218.655 135.283 C 194.272 133.71 160.845 139.609 132.923 150.227 Q 105.001 160.845 99.889 193.092 Q 98.709 209.609 99.889 222.98 Q 101.069 236.351 105.001 255.228 Q 112.473 330.341 115.619 347.645 C 118.766 364.949 131.743 414.107 144.721 431.803 Q 157.699 449.5 184.441 469.163 L 192.306 473.489 Z " fill="rgb(0,0,0)" vector-effect="non-scaling-stroke" stroke-width="1" stroke="rgb(0,0,0)" stroke-linejoin="miter" stroke-linecap="square" stroke-miterlimit="3"/><path d=" M 171.856 351.971 L 182.868 359.836 L 202.137 360.229 L 211.969 350.398 L 206.857 344.892 L 198.598 352.757 L 185.227 353.151 L 175.396 344.499 L 171.856 351.971 Z " fill="rgb(0,0,0)" vector-effect="non-scaling-stroke" stroke-width="1" stroke="rgb(0,0,0)" stroke-linejoin="miter" stroke-linecap="square" stroke-miterlimit="3"/><path d=" M 108.147 290.228 Q 104.215 287.869 101.855 290.228 C 99.496 292.588 101.462 298.88 101.855 305.173 C 102.249 311.465 105.788 332.308 108.934 336.634 Q 112.08 340.959 113.653 337.813 L 115.226 345.285 Q 107.361 346.072 103.035 342.139 C 98.709 338.207 93.203 303.599 93.203 292.981 Q 93.203 282.363 103.428 281.97 L 108.934 283.15 L 108.147 290.228 Z " fill="rgb(0,0,0)" vector-effect="non-scaling-stroke" stroke-width="1" stroke="rgb(0,0,0)" stroke-linejoin="miter" stroke-linecap="square" stroke-miterlimit="3"/><path d=" M 277.273 288.617 Q 281.126 286.13 283.562 288.411 C 285.997 290.692 284.237 297.045 284.05 303.347 C 283.862 309.649 281.006 330.596 278.003 335.023 Q 275 339.449 273.325 336.356 L 271.997 343.875 Q 279.883 344.405 284.079 340.333 C 288.274 336.261 292.646 301.492 292.299 290.88 Q 291.952 280.267 281.72 280.208 L 276.255 281.567 L 277.273 288.617 Z " fill="rgb(0,0,0)" vector-effect="non-scaling-stroke" stroke-width="1" stroke="rgb(0,0,0)" stroke-linejoin="miter" stroke-linecap="square" stroke-miterlimit="3"/><path d=" M 269.281 286.978 L 262.989 286.978 Q 265.742 300.349 263.776 305.462 C 261.809 310.574 259.45 323.159 247.259 327.878 C 235.067 332.597 224.843 331.417 217.764 329.057 C 210.685 326.698 206.753 321.585 204.786 317.26 Q 202.82 312.934 196.921 291.304 L 192.341 286.836 L 201.247 282.259 Q 215.404 276.36 224.843 275.18 Q 234.281 274.001 251.978 278.72 L 256.304 279.506 L 270.854 277.933 L 269.281 286.978 Z  M 115.226 287.082 L 121.518 287.082 Q 118.766 300.453 120.732 305.566 C 122.698 310.678 125.058 323.263 137.249 327.982 C 149.44 332.701 159.665 331.521 166.744 329.162 C 173.822 326.802 177.755 321.69 179.721 317.364 Q 181.688 313.038 187.587 291.408 L 192.006 286.836 L 183.261 282.363 Q 169.103 276.464 159.665 275.284 Q 150.227 274.105 132.53 278.824 L 128.204 279.61 L 113.653 278.037 L 115.226 287.082 Z " fill-rule="evenodd" fill="rgb(0,0,0)" vector-effect="non-scaling-stroke" stroke-width="1" stroke="rgb(0,0,0)" stroke-linejoin="miter" stroke-linecap="square" stroke-miterlimit="3"/><path d=" M 152.5 399 Q 161 392.5 164.25 390.5 Q 167.5 388.5 172.5 386.75 L 174.75 392.25 L 209.75 392.25 L 213.25 385.5 Q 221.25 390 224 392 Q 226.75 394 231.75 398.5 Q 225.25 407 218.5 412.75 C 211.75 418.5 209.75 418.25 206.5 418 C 203.25 417.75 194.75 403 196 406 Q 197.25 409 192.5 398.75 Q 183.75 414.25 186.25 410.75 C 188.75 407.25 182.5 417 179 417.75 C 175.5 418.5 170.75 416.75 164.75 411.75 Q 158.75 406.75 152.5 399 Z " fill="rgb(255,255,255)" vector-effect="non-scaling-stroke" stroke-width="1" stroke="rgb(0,0,0)" stroke-linejoin="miter" stroke-linecap="square" stroke-miterlimit="3"/><path d=" M 178.5 385 L 205.75 385 L 206 382.5 Q 199.75 378.5 191.5 378.75 Q 183.25 379 177.981 382.962 L 178.5 385 Z " fill="rgb(255,255,255)" vector-effect="non-scaling-stroke" stroke-width="1" stroke="rgb(0,0,0)" stroke-linejoin="miter" stroke-linecap="square" stroke-miterlimit="3"/></g></g></svg>